<svg xmlns="http://www.w3.org/2000/svg" viewBox="0 0 100 100">

  <defs>
    <linearGradient id="fill" x1="0" y1="0" x2="0" y2="1">
      <stop offset="0%" stop-color="#4a4a4a"/>
      <stop offset="100%" stop-color="#111111"/>
    </linearGradient>
    <filter id="ds" x="-20%" y="-20%" width="140%" height="140%">
      <feDropShadow dx="0" dy="2" stdDeviation="1.2" flood-color="#000000" flood-opacity="0.35"/>
    </filter>
  </defs>
  <g fill="url(#fill)" stroke="#0a0a0a" stroke-width="3" stroke-linejoin="round" stroke-linecap="round" filter="url(#ds)">
    
    <path d="M48 12 L52 12 L52 20 L60 20 L60 24 L52 24 L52 32 L48 32 L48 24 L40 24 L40 20 L48 20 Z"/>
    <path d="M40 36 C40 30 60 30 60 36 C66 44 64 56 60 64 L40 64 C36 56 34 44 40 36 Z"/>
    <path d="M34 66 L66 66 L72 78 L28 78 Z"/>
    <rect x="26" y="78" width="48" height="10" rx="3" ry="3"/>
    <rect x="22" y="88" width="56" height="8" rx="3" ry="3"/>
    
  </g>
</svg>
