<svg xmlns="http://www.w3.org/2000/svg" viewBox="0 0 100 100">

  <defs>
    <linearGradient id="fill" x1="0" y1="0" x2="0" y2="1">
      <stop offset="0%" stop-color="#4a4a4a"/>
      <stop offset="100%" stop-color="#111111"/>
    </linearGradient>
    <filter id="ds" x="-20%" y="-20%" width="140%" height="140%">
      <feDropShadow dx="0" dy="2" stdDeviation="1.2" flood-color="#000000" flood-opacity="0.35"/>
    </filter>
  </defs>
  <g fill="url(#fill)" stroke="#0a0a0a" stroke-width="3" stroke-linejoin="round" stroke-linecap="round" filter="url(#ds)">
    
    <path d="M64 22 C56 18 46 18 40 26 C34 34 36 44 40 50
             C34 54 30 60 30 66 L30 74 L70 74 L70 62
             C70 52 64 46 56 42 L58 34 L66 32 Z"/>
    <circle cx="54" cy="34" r="3" fill="none"/>
    <path d="M34 74 L66 74 L72 86 L28 86 Z"/>
    <rect x="22" y="86" width="56" height="8" rx="3" ry="3"/>
    
  </g>
</svg>
