<svg xmlns="http://www.w3.org/2000/svg" viewBox="0 0 100 100">

  <defs>
    <linearGradient id="fill" x1="0" y1="0" x2="0" y2="1">
      <stop offset="0%" stop-color="#4a4a4a"/>
      <stop offset="100%" stop-color="#111111"/>
    </linearGradient>
    <filter id="ds" x="-20%" y="-20%" width="140%" height="140%">
      <feDropShadow dx="0" dy="2" stdDeviation="1.2" flood-color="#000000" flood-opacity="0.35"/>
    </filter>
  </defs>
  <g fill="url(#fill)" stroke="#0a0a0a" stroke-width="3" stroke-linejoin="round" stroke-linecap="round" filter="url(#ds)">
    
    <circle cx="30" cy="26" r="6"/>
    <circle cx="50" cy="20" r="6"/>
    <circle cx="70" cy="26" r="6"/>
    <path d="M28 30 L36 30 L44 42 L50 30 L56 42 L64 30 L72 30 L66 56 L34 56 Z"/>
    <path d="M36 56 L64 56 L64 70 C64 74 61 78 56 78 L44 78 C39 78 36 74 36 70 Z"/>
    <path d="M30 80 L70 80 L76 90 L24 90 Z"/>
    <rect x="20" y="90" width="60" height="8" rx="3" ry="3"/>
    
  </g>
</svg>
