<svg xmlns="http://www.w3.org/2000/svg" viewBox="0 0 100 100">

  <defs>
    <linearGradient id="fill" x1="0" y1="0" x2="0" y2="1">
      <stop offset="0%" stop-color="#ffffff"/>
      <stop offset="100%" stop-color="#d9d9d9"/>
    </linearGradient>
    <filter id="ds" x="-20%" y="-20%" width="140%" height="140%">
      <feDropShadow dx="0" dy="2" stdDeviation="1.2" flood-color="#000000" flood-opacity="0.25"/>
    </filter>
  </defs>
  <g fill="url(#fill)" stroke="#0e0e0e" stroke-width="3" stroke-linejoin="round" stroke-linecap="round" filter="url(#ds)">
    
    <path d="M50 18 C40 18 38 30 46 36 C38 42 36 54 42 62 L58 62 C64 54 62 42 54 36 C62 30 60 18 50 18 Z"/>
    <path d="M46 28 L60 42" fill="none"/>
    <path d="M34 64 L66 64 L72 78 L28 78 Z"/>
    <rect x="26" y="78" width="48" height="10" rx="3" ry="3"/>
    <rect x="22" y="88" width="56" height="8" rx="3" ry="3"/>
    
  </g>
</svg>
