<svg xmlns="http://www.w3.org/2000/svg" viewBox="0 0 100 100">

  <defs>
    <linearGradient id="fill" x1="0" y1="0" x2="0" y2="1">
      <stop offset="0%" stop-color="#ffffff"/>
      <stop offset="100%" stop-color="#d9d9d9"/>
    </linearGradient>
    <filter id="ds" x="-20%" y="-20%" width="140%" height="140%">
      <feDropShadow dx="0" dy="2" stdDeviation="1.2" flood-color="#000000" flood-opacity="0.25"/>
    </filter>
  </defs>
  <g fill="url(#fill)" stroke="#0e0e0e" stroke-width="3" stroke-linejoin="round" stroke-linecap="round" filter="url(#ds)">
    
    <path d="M30 18 L36 18 L36 26 L44 26 L44 18 L56 18 L56 26 L64 26 L64 18 L70 18 L70 34 L30 34 Z"/>
    <path d="M34 34 L66 34 L66 66 C66 72 62 76 56 76 L44 76 C38 76 34 72 34 66 Z"/>
    <path d="M28 78 L72 78 L78 88 L22 88 Z"/>
    <rect x="20" y="88" width="60" height="8" rx="3" ry="3"/>
    
  </g>
</svg>
